<svg width="40" height="40" viewBox="0 0 40 40" fill="none" xmlns="http://www.w3.org/2000/svg">
<path d="M35.9375 0H4.0625C2.98557 0.00235095 1.95321 0.611834 1.1917 1.69487C0.430196 2.7779 0.00165301 4.24614 0 5.77778V34.2222C0.00165301 35.7539 0.430196 37.2221 1.1917 38.3051C1.95321 39.3882 2.98557 39.9977 4.0625 40H35.9375C37.0144 39.9977 38.0468 39.3882 38.8083 38.3051C39.5698 37.2221 39.9983 35.7539 40 34.2222V5.77778C39.9983 4.24614 39.5698 2.7779 38.8083 1.69487C38.0468 0.611834 37.0144 0.00235095 35.9375 0ZM4.0625 0.888889H35.9375C36.8487 0.891239 37.7221 1.40707 38.3664 2.32341C39.0107 3.23974 39.3733 4.48189 39.375 5.77778V8.88889H0.625V5.77778C0.626652 4.48189 0.989347 3.23974 1.63365 2.32341C2.27794 1.40707 3.15133 0.891239 4.0625 0.888889ZM39.375 24H0.625V9.77778H39.375V24ZM35.9375 39.1111H4.0625C3.15133 39.1088 2.27794 38.5929 1.63365 37.6766C0.989347 36.7603 0.626652 35.5181 0.625 34.2222V24.8889H39.375V34.2222C39.3733 35.5181 39.0107 36.7603 38.3664 37.6766C37.7221 38.5929 36.8487 39.1088 35.9375 39.1111Z" fill="black"/>
<path d="M29.9998 28.4444C29.4301 28.4501 28.8788 28.7323 28.4373 29.2444C28.0708 28.8194 27.6271 28.5509 27.1576 28.4701C26.6881 28.3894 26.2122 28.4997 25.785 28.7882C25.3578 29.0767 24.9969 29.5316 24.7442 30.1001C24.4915 30.6686 24.3574 31.3274 24.3574 32C24.3574 32.6725 24.4915 33.3313 24.7442 33.8998C24.9969 34.4683 25.3578 34.9233 25.785 35.2118C26.2122 35.5003 26.6881 35.6106 27.1576 35.5298C27.6271 35.4491 28.0708 35.1806 28.4373 34.7555C28.7482 35.1161 29.1156 35.3649 29.5083 35.481C29.9011 35.5971 30.3077 35.5771 30.6939 35.4227C31.08 35.2683 31.4344 34.984 31.727 34.5938C32.0197 34.2035 32.242 33.7189 32.3752 33.1808C32.5085 32.6426 32.5487 32.0668 32.4925 31.5019C32.4363 30.937 32.2854 30.3997 32.0525 29.9352C31.8195 29.4707 31.5114 29.0928 31.1541 28.8333C30.7969 28.5739 30.401 28.4405 29.9998 28.4444ZM28.4373 33.4666C28.2357 33.0312 28.1283 32.5213 28.1283 32C28.1283 31.4786 28.2357 30.9687 28.4373 30.5333C28.6389 30.9687 28.7464 31.4786 28.7464 32C28.7464 32.5213 28.6389 33.0312 28.4373 33.4666ZM24.9998 32C24.9998 31.2927 25.1974 30.6145 25.549 30.1144C25.9006 29.6143 26.3775 29.3333 26.8748 29.3333C27.2819 29.3384 27.6768 29.5319 27.9998 29.8844C27.6754 30.4932 27.4998 31.2361 27.4998 32C27.4998 32.7638 27.6754 33.5068 27.9998 34.1155C27.6768 34.4681 27.2819 34.6615 26.8748 34.6666C26.3775 34.6666 25.9006 34.3857 25.549 33.8856C25.1974 33.3855 24.9998 32.7072 24.9998 32ZM29.9998 34.6666C29.5927 34.6615 29.1978 34.4681 28.8748 34.1155C29.1993 33.5068 29.3749 32.7638 29.3749 32C29.3749 31.2361 29.1993 30.4932 28.8748 29.8844C29.1978 29.5319 29.5927 29.3384 29.9998 29.3333C30.4971 29.3333 30.974 29.6143 31.3257 30.1144C31.6773 30.6145 31.8748 31.2927 31.8748 32C31.8748 32.7072 31.6773 33.3855 31.3257 33.8856C30.974 34.3857 30.4971 34.6666 29.9998 34.6666Z" fill="black"/>
<path d="M9.0625 30.2217H3.4375C3.35462 30.2217 3.27513 30.2685 3.21653 30.3519C3.15792 30.4352 3.125 30.5483 3.125 30.6661C3.125 30.784 3.15792 30.897 3.21653 30.9804C3.27513 31.0637 3.35462 31.1106 3.4375 31.1106H9.0625C9.14538 31.1106 9.22487 31.0637 9.28347 30.9804C9.34208 30.897 9.375 30.784 9.375 30.6661C9.375 30.5483 9.34208 30.4352 9.28347 30.3519C9.22487 30.2685 9.14538 30.2217 9.0625 30.2217Z" fill="black"/>
<path d="M5.3125 32.8887H3.4375C3.35462 32.8887 3.27513 32.9355 3.21653 33.0188C3.15792 33.1022 3.125 33.2152 3.125 33.3331C3.125 33.451 3.15792 33.564 3.21653 33.6474C3.27513 33.7307 3.35462 33.7776 3.4375 33.7776H5.3125C5.39538 33.7776 5.47487 33.7307 5.53347 33.6474C5.59208 33.564 5.625 33.451 5.625 33.3331C5.625 33.2152 5.59208 33.1022 5.53347 33.0188C5.47487 32.9355 5.39538 32.8887 5.3125 32.8887Z" fill="black"/>
<path d="M9.0625 32.8887H7.1875C7.10462 32.8887 7.02513 32.9355 6.96653 33.0188C6.90792 33.1022 6.875 33.2152 6.875 33.3331C6.875 33.451 6.90792 33.564 6.96653 33.6474C7.02513 33.7307 7.10462 33.7776 7.1875 33.7776H9.0625C9.14538 33.7776 9.22487 33.7307 9.28347 33.6474C9.34208 33.564 9.375 33.451 9.375 33.3331C9.375 33.2152 9.34208 33.1022 9.28347 33.0188C9.22487 32.9355 9.14538 32.8887 9.0625 32.8887Z" fill="black"/>
</svg>
