<svg width="40" height="40" viewBox="0 0 40 40" fill="none" xmlns="http://www.w3.org/2000/svg">
<path d="M20.0001 31.4286C20.8791 31.4286 21.7384 31.0934 22.4693 30.4655C23.2002 29.8377 23.7699 28.9452 24.1062 27.9011C24.4426 26.8569 24.5306 25.708 24.3592 24.5995C24.1877 23.491 23.7644 22.4728 23.1428 21.6737C22.5212 20.8745 21.7293 20.3303 20.8672 20.1098C20.005 19.8893 19.1114 20.0025 18.2993 20.435C17.4872 20.8675 16.7931 21.5999 16.3047 22.5396C15.8163 23.4793 15.5557 24.5841 15.5557 25.7143C15.5557 27.2298 16.0239 28.6833 16.8574 29.7549C17.6909 30.8265 18.8214 31.4286 20.0001 31.4286ZM20.0001 20.7143C20.7693 20.7143 21.5211 21.0075 22.1607 21.5569C22.8002 22.1063 23.2986 22.8872 23.593 23.8009C23.8873 24.7145 23.9643 25.7198 23.8143 26.6897C23.6642 27.6596 23.2938 28.5506 22.75 29.2498C22.2061 29.9491 21.5132 30.4253 20.7588 30.6182C20.0044 30.8111 19.2225 30.7121 18.5119 30.3337C17.8013 29.9552 17.1939 29.3144 16.7666 28.4921C16.3393 27.6699 16.1112 26.7032 16.1112 25.7143C16.1112 24.3882 16.5209 23.1164 17.2502 22.1788C17.9796 21.2411 18.9687 20.7143 20.0001 20.7143Z" fill="black"/>
<path d="M4.16645 32.143C4.68215 32.143 5.17673 32.4064 5.54138 32.8752C5.90603 33.3441 6.11089 33.98 6.11089 34.643C6.11089 34.7377 6.14016 34.8286 6.19225 34.8955C6.24435 34.9625 6.315 35.0001 6.38867 35.0001H33.6109C33.6846 35.0001 33.7552 34.9625 33.8073 34.8955C33.8594 34.8286 33.8887 34.7377 33.8887 34.643C33.8887 33.98 34.0935 33.3441 34.4582 32.8752C34.8228 32.4064 35.3174 32.143 35.8331 32.143C35.9068 32.143 35.9774 32.1054 36.0295 32.0384C36.0816 31.9714 36.1109 31.8806 36.1109 31.7859V19.643C36.1109 19.5483 36.0816 19.4574 36.0295 19.3905C35.9774 19.3235 35.9068 19.2859 35.8331 19.2859C35.3174 19.2859 34.8228 19.0225 34.4582 18.5536C34.0935 18.0848 33.8887 17.4489 33.8887 16.7859C33.8887 16.6911 33.8594 16.6003 33.8073 16.5333C33.7552 16.4663 33.6846 16.4287 33.6109 16.4287H6.38867C6.315 16.4287 6.24435 16.4663 6.19225 16.5333C6.14016 16.6003 6.11089 16.6911 6.11089 16.7859C6.11089 17.4489 5.90603 18.0848 5.54138 18.5536C5.17673 19.0225 4.68215 19.2859 4.16645 19.2859C4.09278 19.2859 4.02212 19.3235 3.97003 19.3905C3.91794 19.4574 3.88867 19.5483 3.88867 19.643V31.7859C3.88867 31.8806 3.91794 31.9714 3.97003 32.0384C4.02212 32.1054 4.09278 32.143 4.16645 32.143ZM4.44423 20.0001C5.01257 19.9213 5.54285 19.5949 5.94706 19.0752C6.35127 18.5555 6.60511 17.8737 6.66645 17.143H33.3331C33.3945 17.8737 33.6483 18.5555 34.0525 19.0752C34.4567 19.5949 34.987 19.9213 35.5553 20.0001V31.4287C34.987 31.5076 34.4567 31.8339 34.0525 32.3536C33.6483 32.8733 33.3945 33.5551 33.3331 34.2859H6.66645C6.60511 33.5551 6.35127 32.8733 5.94706 32.3536C5.54285 31.8339 5.01257 31.5076 4.44423 31.4287V20.0001Z" fill="black"/>
<path d="M28.8893 27.857C29.219 27.857 29.5412 27.7313 29.8153 27.4959C30.0894 27.2604 30.303 26.9257 30.4291 26.5342C30.5553 26.1426 30.5883 25.7118 30.524 25.2961C30.4597 24.8804 30.3009 24.4986 30.0678 24.1989C29.8347 23.8992 29.5378 23.6951 29.2145 23.6125C28.8912 23.5298 28.5561 23.5722 28.2515 23.7344C27.947 23.8966 27.6867 24.1712 27.5035 24.5236C27.3204 24.876 27.2227 25.2903 27.2227 25.7141C27.2227 26.2825 27.3983 26.8275 27.7108 27.2294C28.0234 27.6312 28.4473 27.857 28.8893 27.857ZM28.8893 24.2856C29.1091 24.2856 29.3239 24.3694 29.5066 24.5263C29.6893 24.6833 29.8318 24.9064 29.9159 25.1675C30 25.4285 30.022 25.7157 29.9791 25.9928C29.9362 26.27 29.8304 26.5245 29.675 26.7243C29.5196 26.9241 29.3216 27.0601 29.1061 27.1153C28.8906 27.1704 28.6671 27.1421 28.4641 27.034C28.2611 26.9258 28.0876 26.7427 27.9655 26.5078C27.8434 26.2729 27.7782 25.9967 27.7782 25.7141C27.7782 25.3353 27.8953 24.9719 28.1036 24.704C28.312 24.4361 28.5946 24.2856 28.8893 24.2856Z" fill="black"/>
<path d="M11.111 27.857C11.4406 27.857 11.7629 27.7313 12.037 27.4959C12.311 27.2604 12.5247 26.9257 12.6508 26.5342C12.7769 26.1426 12.81 25.7118 12.7456 25.2961C12.6813 24.8804 12.5226 24.4986 12.2895 24.1989C12.0564 23.8992 11.7595 23.6951 11.4362 23.6125C11.1129 23.5298 10.7777 23.5722 10.4732 23.7344C10.1687 23.8966 9.90836 24.1712 9.72522 24.5236C9.54208 24.876 9.44434 25.2903 9.44434 25.7141C9.44434 26.2825 9.61993 26.8275 9.93249 27.2294C10.2451 27.6312 10.669 27.857 11.111 27.857ZM11.111 24.2856C11.3308 24.2856 11.5456 24.3694 11.7283 24.5263C11.911 24.6833 12.0534 24.9064 12.1375 25.1675C12.2216 25.4285 12.2436 25.7157 12.2008 25.9928C12.1579 26.27 12.0521 26.5245 11.8967 26.7243C11.7413 26.9241 11.5433 27.0601 11.3278 27.1153C11.1122 27.1704 10.8888 27.1421 10.6858 27.034C10.4828 26.9258 10.3092 26.7427 10.1871 26.5078C10.0651 26.2729 9.99989 25.9967 9.99989 25.7141C9.99989 25.3353 10.117 24.9719 10.3253 24.704C10.5337 24.4361 10.8163 24.2856 11.111 24.2856Z" fill="black"/>
<path d="M39.7222 11.4287H0.277778C0.204107 11.4287 0.133452 11.4663 0.081359 11.5333C0.0292656 11.6003 0 11.6911 0 11.7859V39.643C0 39.7377 0.0292656 39.8286 0.081359 39.8955C0.133452 39.9625 0.204107 40.0001 0.277778 40.0001H39.7222C39.7959 40.0001 39.8665 39.9625 39.9186 39.8955C39.9707 39.8286 40 39.7377 40 39.643V11.7859C40 11.6911 39.9707 11.6003 39.9186 11.5333C39.8665 11.4663 39.7959 11.4287 39.7222 11.4287ZM39.4444 39.2859H0.555556V12.143H39.4444V39.2859Z" fill="black"/>
<path d="M3.05512 10.0001C3.12879 10.0001 3.19945 9.96244 3.25154 9.89547C3.30363 9.82849 3.3329 9.73765 3.3329 9.64293V6.42864H36.6662V9.64293C36.6662 9.73765 36.6955 9.82849 36.7476 9.89547C36.7997 9.96244 36.8703 10.0001 36.944 10.0001C37.0177 10.0001 37.0883 9.96244 37.1404 9.89547C37.1925 9.82849 37.2218 9.73765 37.2218 9.64293V6.0715C37.2218 5.97678 37.1925 5.88594 37.1404 5.81896C37.0883 5.75198 37.0177 5.71436 36.944 5.71436H3.05512C2.98145 5.71436 2.9108 5.75198 2.8587 5.81896C2.80661 5.88594 2.77734 5.97678 2.77734 6.0715V9.64293C2.77734 9.73765 2.80661 9.82849 2.8587 9.89547C2.9108 9.96244 2.98145 10.0001 3.05512 10.0001Z" fill="black"/>
<path d="M5.83344 4.28571C5.90711 4.28571 5.97777 4.24809 6.02986 4.18111C6.08195 4.11413 6.11122 4.02329 6.11122 3.92857V0.714286H33.889V3.92857C33.889 4.02329 33.9183 4.11413 33.9704 4.18111C34.0225 4.24809 34.0931 4.28571 34.1668 4.28571C34.2404 4.28571 34.3111 4.24809 34.3632 4.18111C34.4153 4.11413 34.4446 4.02329 34.4446 3.92857V0.357143C34.4446 0.262423 34.4153 0.171582 34.3632 0.104604C34.3111 0.0376272 34.2404 0 34.1668 0H5.83344C5.75977 0 5.68912 0.0376272 5.63702 0.104604C5.58493 0.171582 5.55566 0.262423 5.55566 0.357143V3.92857C5.55566 4.02329 5.58493 4.11413 5.63702 4.18111C5.68912 4.24809 5.75977 4.28571 5.83344 4.28571Z" fill="black"/>
</svg>
