<svg width="60" height="27" viewBox="0 0 60 27" fill="none" xmlns="http://www.w3.org/2000/svg">
<path d="M49.0393 18.832H47.0352C46.5164 18.832 46.0957 19.2526 46.0957 19.7715C46.0957 20.2904 46.5163 20.711 47.0352 20.711H49.0393C49.5581 20.711 49.9788 20.2904 49.9788 19.7715C49.9788 19.2526 49.5581 18.832 49.0393 18.832Z" fill="black"/>
<path d="M55.052 18.832H53.0479C52.5291 18.832 52.1084 19.2526 52.1084 19.7715C52.1084 20.2904 52.529 20.711 53.0479 20.711H55.052C55.5708 20.711 55.9915 20.2904 55.9915 19.7715C55.9915 19.2526 55.5708 18.832 55.052 18.832Z" fill="black"/>
<path d="M43.0276 18.832H41.0235C40.5047 18.832 40.084 19.2526 40.084 19.7715C40.084 20.2904 40.5046 20.711 41.0235 20.711H43.0276C43.5464 20.711 43.9671 20.2904 43.9671 19.7715C43.9671 19.2526 43.5464 18.832 43.0276 18.832Z" fill="black"/>
<path d="M39.0191 10.8149H36.0129C34.9422 10.8149 34.0713 11.6859 34.0713 12.7565V14.7606C34.0713 15.8313 34.9422 16.7022 36.0129 16.7022H39.0191C40.0897 16.7022 40.9606 15.8313 40.9606 14.7606V12.7565C40.9606 11.6859 40.0897 10.8149 39.0191 10.8149ZM39.0818 14.7606C39.0818 14.7952 39.0537 14.8232 39.0192 14.8232H36.013C35.9784 14.8232 35.9504 14.7952 35.9504 14.7606V12.7565C35.9504 12.7219 35.9784 12.6939 36.013 12.6939H39.0192C39.0537 12.6939 39.0818 12.7219 39.0818 12.7565V14.7606Z" fill="black"/>
<path d="M53.0476 10.8149C52.2738 10.8149 51.5694 11.1154 51.0435 11.6054C50.5175 11.1155 49.813 10.8149 49.0393 10.8149C47.4162 10.8149 46.0957 12.1354 46.0957 13.7586C46.0957 15.3817 47.4162 16.7022 49.0393 16.7022C49.8131 16.7022 50.5175 16.4017 51.0435 15.9118C51.5694 16.4016 52.2739 16.7022 53.0476 16.7022C54.6708 16.7022 55.9913 15.3817 55.9913 13.7586C55.9913 12.1354 54.6708 10.8149 53.0476 10.8149ZM49.0393 14.8232C48.4522 14.8232 47.9746 14.3456 47.9746 13.7585C47.9746 13.1713 48.4522 12.6937 49.0393 12.6937C49.6264 12.6937 50.1041 13.1713 50.1041 13.7585C50.1041 14.3456 49.6264 14.8232 49.0393 14.8232ZM53.0476 14.8232C52.4605 14.8232 51.9829 14.3456 51.9829 13.7585C51.9829 13.1713 52.4605 12.6937 53.0476 12.6937C53.6347 12.6937 54.1124 13.1713 54.1124 13.7585C54.1124 14.3456 53.6347 14.8232 53.0476 14.8232Z" fill="black"/>
<path d="M57.0564 5.80466H41.4927L39.7645 3.5004C38.9715 2.44302 37.8143 1.75794 36.506 1.57103L26.0677 0.0798193C24.623 -0.126196 23.1507 0.0683339 21.8095 0.643139L11.2897 5.15169C10.7362 5.38888 10.16 5.56162 9.57012 5.67025C9.22172 5.14794 8.6277 4.80283 7.9541 4.80283H1.94156C0.870938 4.80271 0 5.67365 0 6.74427V21.7756C0 22.8462 0.870938 23.7171 1.94156 23.7171H7.9541C8.68395 23.7171 9.32051 23.3119 9.65203 22.7151H30.0627V23.7798C30.0627 25.403 31.3832 26.7235 33.0063 26.7235H57.0565C58.6796 26.7235 60.0001 25.403 60.0001 23.7798V8.74841C60 7.12513 58.6795 5.80466 57.0564 5.80466ZM8.01668 21.7754C8.01668 21.81 7.98867 21.838 7.9541 21.838H1.94156C1.90699 21.838 1.87898 21.81 1.87898 21.7754V6.74416C1.87898 6.70959 1.90699 6.68158 1.94156 6.68158H7.9541C7.98867 6.68158 8.01668 6.70959 8.01668 6.74416V21.7754ZM9.89566 20.8358V7.52029C10.6279 7.38681 11.3429 7.17271 12.0299 6.87833L22.5497 2.36978C23.5739 1.93091 24.6987 1.78208 25.802 1.93958L36.2404 3.4308C37.0519 3.54669 37.7695 3.97162 38.2615 4.62751L39.1441 5.80443H29.9496C28.3918 5.80443 26.9767 6.72423 26.344 8.14771L24.1804 13.0157C23.8077 13.854 23.8434 14.7982 24.2782 15.6062C24.713 16.4141 25.4814 16.9641 26.3865 17.1149L34.0451 18.3913C34.641 18.4906 35.0734 19.001 35.0734 19.6051C35.0734 20.2836 34.5213 20.8357 33.8428 20.8357H9.89566V20.8358ZM30.2626 7.68365C30.1339 8.01412 30.0626 8.37294 30.0626 8.74841V15.823L26.6951 15.2618C26.3678 15.2072 26.0898 15.0085 25.9325 14.7162C25.7754 14.4239 25.7624 14.0823 25.8973 13.7793L28.0609 8.91119C28.3923 8.16552 29.1336 7.68376 29.9496 7.68376L30.2626 7.68365ZM58.1211 23.7796C58.1211 24.3667 57.6435 24.8443 57.0564 24.8443H33.0062C32.4191 24.8443 31.9414 24.3667 31.9414 23.7796V22.7148H33.8423C35.1677 22.7148 36.3014 21.8809 36.7481 20.7107H37.0144C37.5332 20.7107 37.9539 20.2901 37.9539 19.7712C37.9539 19.2523 37.5333 18.8317 37.0144 18.8317H36.8534C36.5552 17.6605 35.5958 16.7451 34.3534 16.538L31.9412 16.136V8.74818C31.9412 8.16107 32.4189 7.68341 33.006 7.68341H57.0561C57.6432 7.68341 58.1209 8.16107 58.1209 8.74818V23.7796H58.1211Z" fill="black"/>
<path d="M4.9473 19.6871C5.46617 19.6871 5.8868 19.2665 5.8868 18.7476C5.8868 18.2287 5.46617 17.8081 4.9473 17.8081C4.42844 17.8081 4.00781 18.2287 4.00781 18.7476C4.00781 19.2665 4.42844 19.6871 4.9473 19.6871Z" fill="black"/>
</svg>
