<svg width="46" height="33" viewBox="0 0 46 33" fill="none" xmlns="http://www.w3.org/2000/svg">
<path d="M11 23C13.7614 23 16 25.2386 16 28C16 30.7614 13.7614 33 11 33C8.23858 33 6 30.7614 6 28C6 25.2386 8.23858 23 11 23ZM38 23C40.7614 23 43 25.2386 43 28C43 30.7614 40.7614 33 38 33C35.2386 33 33 30.7614 33 28C33 25.2386 35.2386 23 38 23ZM38 24C35.7909 24 34 25.7909 34 28C34 30.2091 35.7909 32 38 32C40.2091 32 42 30.2091 42 28C42 25.7909 40.2091 24 38 24ZM11 24C8.79086 24 7 25.7909 7 28C7 30.2091 8.79086 32 11 32C13.2091 32 15 30.2091 15 28C15 25.7909 13.2091 24 11 24ZM3 27.5H6V28.5H2V21H3V27.5ZM31.5 7.5H39.75L39.9004 7.7002L46 15.833V28.5H43.5V27.5H45V17H37V16H44.875L39.25 8.5H31.5V27.5H33V28.5H16V27.5H30.5V1H3V7.5H2V0H31.5V7.5ZM8.5 18H0V17H8.5V18ZM11.5 13H0V12H11.5V13ZM13 9H0V8H13V9Z" fill="black"/>
<path d="M11 23C13.7614 23 16 25.2386 16 28C16 30.7614 13.7614 33 11 33C8.23858 33 6 30.7614 6 28C6 25.2386 8.23858 23 11 23ZM38 23C40.7614 23 43 25.2386 43 28C43 30.7614 40.7614 33 38 33C35.2386 33 33 30.7614 33 28C33 25.2386 35.2386 23 38 23ZM38 24C35.7909 24 34 25.7909 34 28C34 30.2091 35.7909 32 38 32C40.2091 32 42 30.2091 42 28C42 25.7909 40.2091 24 38 24ZM11 24C8.79086 24 7 25.7909 7 28C7 30.2091 8.79086 32 11 32C13.2091 32 15 30.2091 15 28C15 25.7909 13.2091 24 11 24ZM3 27.5H6V28.5H2V21H3V27.5ZM31.5 7.5H39.75L39.9004 7.7002L46 15.833V28.5H43.5V27.5H45V17H37V16H44.875L39.25 8.5H31.5V27.5H33V28.5H16V27.5H30.5V1H3V7.5H2V0H31.5V7.5ZM8.5 18H0V17H8.5V18ZM11.5 13H0V12H11.5V13ZM13 9H0V8H13V9Z" fill="black"/>
</svg>
