<svg width="27" height="27" viewBox="0 0 27 27" fill="none" xmlns="http://www.w3.org/2000/svg">
<path d="M26.9826 8.01785C26.9826 8.00995 26.9826 8.00205 26.9739 8.00205C26.9739 7.98625 26.9652 7.97835 26.9652 7.96255C26.9652 7.95465 26.9565 7.93885 26.9565 7.93095C26.9565 7.92305 26.9478 7.91516 26.9478 7.90726C26.9303 7.86776 26.9129 7.83616 26.8868 7.80456L21.2273 0.260679C21.1054 0.0947925 20.9052 0 20.6875 0H15.15H11.85H6.31248C6.09481 0 5.89455 0.0947925 5.77265 0.260679L0.11319 7.80456C0.0870689 7.83616 0.0696548 7.87566 0.0522411 7.90726C0.0522411 7.91516 0.0435343 7.92305 0.0435343 7.93095C0.0348275 7.93885 0.0348276 7.95465 0.0348276 7.96255C0.0348276 7.97835 0.0261209 7.98625 0.0261209 8.00205C0.0261209 8.00995 0.0261203 8.01785 0.0174135 8.01785C0.0087066 8.05734 0 8.09684 0 8.13634V26.4075C0 26.7314 0.296034 27 0.653015 27H26.347C26.704 27 27 26.7314 27 26.4075V8.13634C26.9913 8.09684 26.9913 8.05734 26.9826 8.01785ZM25.1019 7.54389H16.6649L15.8726 1.1849H20.3305L25.1019 7.54389ZM11.554 8.72879H15.4286V13.0734L13.87 12.0781C13.7569 12.007 13.6262 11.9675 13.4956 11.9675C13.365 11.9675 13.2344 12.007 13.1213 12.0781L11.5627 13.0734V8.72879H11.554ZM14.5579 1.1849L15.3502 7.54389H11.6324L12.4247 1.1849H14.5579ZM6.66075 1.1849H11.1187L10.3263 7.54389H1.88939L6.66075 1.1849ZM25.6853 25.8151H1.30603V8.72879H10.2567V14.2109C10.2567 14.4321 10.396 14.6375 10.605 14.7402C10.8226 14.8429 11.0838 14.8271 11.2841 14.7007L13.4956 13.2867L15.7072 14.7007C15.8204 14.7718 15.951 14.8113 16.0816 14.8113C16.1861 14.8113 16.2906 14.7876 16.3863 14.7481C16.604 14.6454 16.7346 14.44 16.7346 14.2188V8.73669H25.6853V25.8151Z" fill="black"/>
<path d="M8.70694 19.3774H4.07489C3.71791 19.3774 3.42188 19.646 3.42188 19.9699C3.42188 20.2938 3.71791 20.5623 4.07489 20.5623H8.70694C9.06393 20.5623 9.35996 20.2938 9.35996 19.9699C9.35996 19.646 9.06393 19.3774 8.70694 19.3774Z" fill="black"/>
<path d="M6.39092 21.8652H4.07489C3.71791 21.8652 3.42188 22.1338 3.42188 22.4577C3.42188 22.7816 3.71791 23.0501 4.07489 23.0501H6.39092C6.7479 23.0501 7.04393 22.7816 7.04393 22.4577C7.04393 22.1338 6.7479 21.8652 6.39092 21.8652Z" fill="black"/>
</svg>
