<svg width="38" height="39" viewBox="0 0 38 39" fill="none" xmlns="http://www.w3.org/2000/svg">
<path d="M15.3838 19.5713C17.9112 18.9551 24.2168 18.8484 29.6885 23.208C32.4366 25.3977 34.3307 28.3749 35.582 31.1836C36.8332 33.992 37.4573 36.6664 37.6484 38.29L37.7139 38.8486H0V38.3486C0.000375612 36.5216 0.00986161 32.8783 3.4082 27.4629L3.4209 27.4424L3.43555 27.4238C7.50772 22.1363 13.0456 19.9929 15.3838 19.5713ZM29.0654 23.9902C23.8817 19.86 17.905 19.9832 15.6133 20.5449L15.5967 20.5488L15.5811 20.5518C13.4652 20.9264 8.15016 22.9517 4.24023 28.0186C1.2807 32.7444 1.02634 36.0109 1.00391 37.8486H36.5771C36.3318 36.297 35.7409 33.9982 34.668 31.5898C33.4574 28.8727 31.6481 26.0481 29.0654 23.9902ZM19.1689 0.00878906C22.69 0.19837 25.4902 3.29217 25.4902 7.08008L25.4814 7.44434C25.3029 11.185 22.3915 14.1591 18.8262 14.1592L18.4834 14.1504C15.0759 13.967 12.3437 11.0644 12.1709 7.44434L12.1621 7.08008C12.1621 3.17001 15.1458 0 18.8262 0L19.1689 0.00878906ZM18.8262 1C15.7542 1 13.1621 3.6644 13.1621 7.08008C13.1622 10.4956 15.7543 13.1592 18.8262 13.1592C21.898 13.1591 24.4901 10.4956 24.4902 7.08008C24.4902 3.66444 21.8981 1.00006 18.8262 1Z" fill="#111111"/>
</svg>
