<svg width="35" height="30" viewBox="0 0 35 30" fill="none" xmlns="http://www.w3.org/2000/svg">
<path d="M6.36903 29.9337V27.9426C6.36903 27.1793 5.94843 26.6815 5.2274 26.6815C4.86688 26.6815 4.47632 26.8142 4.20594 27.2457C3.99564 26.8806 3.69521 26.6815 3.24456 26.6815C2.94413 26.6815 2.64371 26.7811 2.40336 27.1461V26.7479H1.77246V29.9337H2.40336V28.1749C2.40336 27.6107 2.67375 27.3452 3.09435 27.3452C3.51495 27.3452 3.72525 27.6439 3.72525 28.1749V29.9337H4.35615V28.1749C4.35615 27.6107 4.65658 27.3452 5.04714 27.3452C5.46774 27.3452 5.67804 27.6439 5.67804 28.1749V29.9337H6.36903ZM15.7124 26.7479H14.6909V25.7855H14.06V26.7479H13.4892V27.3784H14.06V28.8386C14.06 29.5687 14.3304 30.0001 15.0514 30.0001C15.3218 30.0001 15.6222 29.9005 15.8325 29.7678L15.6523 29.1704C15.472 29.3032 15.2617 29.3364 15.1115 29.3364C14.8111 29.3364 14.6909 29.1373 14.6909 28.8054V27.3784H15.7124V26.7479ZM21.06 26.6815C20.6995 26.6815 20.4592 26.8806 20.3089 27.1461V26.7479H19.678V29.9337H20.3089V28.1417C20.3089 27.6107 20.5192 27.312 20.9098 27.312C21.03 27.312 21.1802 27.3452 21.3004 27.3784L21.4806 26.7147C21.3604 26.6815 21.1802 26.6815 21.06 26.6815ZM12.9785 27.0134C12.678 26.7811 12.2574 26.6815 11.8068 26.6815C11.0858 26.6815 10.6051 27.0797 10.6051 27.7103C10.6051 28.2412 10.9656 28.5399 11.5965 28.6395L11.8969 28.6727C12.2274 28.739 12.4077 28.8386 12.4077 29.0045C12.4077 29.2368 12.1673 29.4027 11.7467 29.4027C11.3261 29.4027 10.9956 29.2368 10.7853 29.0709L10.4849 29.6019C10.8154 29.8673 11.266 30.0001 11.7167 30.0001C12.5579 30.0001 13.0386 29.5687 13.0386 28.9713C13.0386 28.4072 12.648 28.1085 12.0471 28.0089L11.7467 27.9758C11.4763 27.9426 11.266 27.8762 11.266 27.6771C11.266 27.4448 11.4763 27.312 11.8068 27.312C12.1673 27.312 12.5278 27.478 12.7081 27.5775L12.9785 27.0134ZM29.7424 26.6815C29.3819 26.6815 29.1416 26.8806 28.9913 27.1461V26.7479H28.3604V29.9337H28.9913V28.1417C28.9913 27.6107 29.2016 27.312 29.5922 27.312C29.7124 27.312 29.8626 27.3452 29.9828 27.3784L30.163 26.7147C30.0428 26.6815 29.8626 26.6815 29.7424 26.6815ZM21.6909 28.3408C21.6909 29.3032 22.2918 30.0001 23.2231 30.0001C23.6437 30.0001 23.9441 29.9005 24.2446 29.635L23.9441 29.0709C23.7038 29.27 23.4634 29.3696 23.1931 29.3696C22.6823 29.3696 22.3218 28.9713 22.3218 28.3408C22.3218 27.7435 22.6823 27.3452 23.1931 27.312C23.4634 27.312 23.7038 27.4116 23.9441 27.6107L24.2446 27.0466C23.9441 26.7811 23.6437 26.6815 23.2231 26.6815C22.2918 26.6815 21.6909 27.3784 21.6909 28.3408ZM27.5192 28.3408V26.7479H26.8883V27.1461C26.678 26.8474 26.3776 26.6815 25.9871 26.6815C25.1759 26.6815 24.545 27.3784 24.545 28.3408C24.545 29.3032 25.1759 30.0001 25.9871 30.0001C26.4077 30.0001 26.7081 29.8342 26.8883 29.5355V29.9337H27.5192V28.3408ZM25.2059 28.3408C25.2059 27.7766 25.5364 27.312 26.0772 27.312C26.5879 27.312 26.9484 27.7435 26.9484 28.3408C26.9484 28.905 26.5879 29.3696 26.0772 29.3696C25.5364 29.3364 25.2059 28.905 25.2059 28.3408ZM17.6652 26.6815C16.824 26.6815 16.2231 27.3452 16.2231 28.3408C16.2231 29.3364 16.824 30.0001 17.6952 30.0001C18.1158 30.0001 18.5364 29.8673 18.8669 29.5687L18.5665 29.0709C18.3261 29.27 18.0257 29.4027 17.7253 29.4027C17.3347 29.4027 16.9441 29.2036 16.854 28.6395H18.9871V28.374C19.0171 27.3452 18.4763 26.6815 17.6652 26.6815ZM17.6652 27.2788C18.0557 27.2788 18.3261 27.5443 18.3862 28.0421H16.884C16.9441 27.6107 17.2145 27.2788 17.6652 27.2788ZM33.3175 28.3408V25.4868H32.6866V27.1461C32.4763 26.8474 32.1759 26.6815 31.7853 26.6815C30.9742 26.6815 30.3433 27.3784 30.3433 28.3408C30.3433 29.3032 30.9742 30.0001 31.7853 30.0001C32.2059 30.0001 32.5064 29.8342 32.6866 29.5355V29.9337H33.3175V28.3408ZM31.0042 28.3408C31.0042 27.7766 31.3347 27.312 31.8755 27.312C32.3862 27.312 32.7467 27.7435 32.7467 28.3408C32.7467 28.905 32.3862 29.3696 31.8755 29.3696C31.3347 29.3364 31.0042 28.905 31.0042 28.3408ZM9.91409 28.3408V26.7479H9.28319V27.1461C9.07289 26.8474 8.77246 26.6815 8.3819 26.6815C7.57074 26.6815 6.93984 27.3784 6.93984 28.3408C6.93984 29.3032 7.57074 30.0001 8.3819 30.0001C8.8025 30.0001 9.10293 29.8342 9.28319 29.5355V29.9337H9.91409V28.3408ZM7.57074 28.3408C7.57074 27.7766 7.90122 27.312 8.44199 27.312C8.95272 27.312 9.31323 27.7435 9.31323 28.3408C9.31323 28.905 8.95272 29.3696 8.44199 29.3696C7.90122 29.3364 7.57074 28.905 7.57074 28.3408Z" fill="black"/>
<path d="M22.2321 2.55518H12.7686V21.3384H22.2321V2.55518Z" fill="#FF5F00"/>
<path d="M13.3691 11.9469C13.3691 8.13053 14.9914 4.74558 17.485 2.55531C15.6524 0.962389 13.3391 0 10.8155 0C4.83691 0 0 5.34292 0 11.9469C0 18.5509 4.83691 23.8938 10.8155 23.8938C13.3391 23.8938 15.6524 22.9314 17.485 21.3385C14.9914 19.1814 13.3691 15.7633 13.3691 11.9469Z" fill="#EB001B"/>
<path d="M35.0001 11.9469C35.0001 18.5509 30.1632 23.8938 24.1847 23.8938C21.6611 23.8938 19.3478 22.9314 17.5151 21.3385C20.0387 19.1482 21.631 15.7633 21.631 11.9469C21.631 8.13053 20.0087 4.74558 17.5151 2.55531C19.3478 0.962389 21.6611 0 24.1847 0C30.1632 0 35.0001 5.37611 35.0001 11.9469Z" fill="#F79E1B"/>
</svg>
