<svg width="27" height="27" viewBox="0 0 27 27" fill="none" xmlns="http://www.w3.org/2000/svg">
<path d="M1 4.47271C1 16.3622 10.6383 26.0005 22.5278 26.0005C23.0642 26.0005 23.596 25.9809 24.1226 25.9423C24.7269 25.898 25.029 25.8759 25.3042 25.7176C25.5319 25.5865 25.7479 25.354 25.8621 25.1172C26 24.8313 26 24.4978 26 23.831V19.9181C26 19.3573 26 19.0769 25.9076 18.8366C25.8262 18.6242 25.6937 18.4352 25.5221 18.286C25.3278 18.1172 25.0642 18.0213 24.5372 17.8297L20.0833 16.2101C19.4701 15.9872 19.1635 15.8756 18.8726 15.8945C18.6161 15.9112 18.3693 15.9988 18.1596 16.1474C17.9218 16.3159 17.754 16.5956 17.4183 17.1552L16.2778 19.056C12.5974 17.3892 9.61375 14.4017 7.94444 10.7227L9.84532 9.58218C10.4048 9.2465 10.6845 9.07865 10.8531 8.84085C11.0017 8.63115 11.0893 8.38433 11.106 8.12785C11.1249 7.83697 11.0133 7.53039 10.7904 6.91722L9.17082 2.46328C8.97917 1.93627 8.88335 1.67275 8.71447 1.4784C8.56529 1.30672 8.37624 1.17431 8.16392 1.09278C7.92356 1.00049 7.64317 1.00049 7.08239 1.00049H3.16946C2.50261 1.00049 2.16918 1.00049 1.88331 1.13834C1.64653 1.25252 1.41408 1.46856 1.28292 1.69636C1.12456 1.97142 1.10243 2.27357 1.05818 2.87789C1.01962 3.40446 1 3.93629 1 4.47271Z" stroke="#111111" stroke-width="2" stroke-linecap="round" stroke-linejoin="round"/>
</svg>
