<svg width="40" height="40" viewBox="0 0 40 40" fill="none" xmlns="http://www.w3.org/2000/svg">
<path d="M39.3103 38.4615H37.2414V16.1538C37.2447 16.1103 37.2447 16.0666 37.2414 16.0231C37.2414 16.0231 37.2414 15.9615 37.2414 15.9385L33.7931 2.96923V0.769231C33.7931 0.565218 33.7204 0.369561 33.5911 0.225303C33.4618 0.0810439 33.2864 0 33.1034 0H6.89655C6.71364 0 6.53823 0.0810439 6.40889 0.225303C6.27956 0.369561 6.2069 0.565218 6.2069 0.769231V2.96923L2.75862 15.9385C2.75862 15.9385 2.75862 15.9923 2.75862 16.0231C2.75529 16.0666 2.75529 16.1103 2.75862 16.1538V38.4615H0.689655C0.506747 38.4615 0.331331 38.5426 0.201995 38.6868C0.0726599 38.8311 0 39.0268 0 39.2308C0 39.4348 0.0726599 39.6304 0.201995 39.7747C0.331331 39.919 0.506747 40 0.689655 40H39.3103C39.4933 40 39.6687 39.919 39.798 39.7747C39.9273 39.6304 40 39.4348 40 39.2308C40 39.0268 39.9273 38.8311 39.798 38.6868C39.6687 38.5426 39.4933 38.4615 39.3103 38.4615ZM31.7241 20C31.7241 20.3154 31.1862 20.7692 30.3448 20.7692C29.5034 20.7692 28.9655 20.3154 28.9655 20V16.9231H31.7241V20ZM27.5862 20C27.5862 20.3154 27.0483 20.7692 26.2069 20.7692C25.3655 20.7692 24.8276 20.3154 24.8276 20V16.9231H27.5862V20ZM23.4483 20C23.4483 20.3154 22.9103 20.7692 22.069 20.7692C21.2276 20.7692 20.6897 20.3154 20.6897 20V16.9231H23.4483V20ZM19.3103 20C19.3103 20.3154 18.7724 20.7692 17.931 20.7692C17.0897 20.7692 16.5517 20.3154 16.5517 20V16.9231H19.3103V20ZM15.1724 20C15.1724 20.3154 14.6345 20.7692 13.7931 20.7692C12.9517 20.7692 12.4138 20.3154 12.4138 20V16.9231H15.1724V20ZM11.0345 20C11.0345 20.3154 10.4966 20.7692 9.65517 20.7692C8.81379 20.7692 8.27586 20.3154 8.27586 20V16.9231H11.0345V20ZM6.89655 20C6.89655 20.3154 6.35862 20.7692 5.51724 20.7692C4.67586 20.7692 4.13793 20.3154 4.13793 20V16.9231H6.89655V20ZM33.1034 16.9231H35.8621V20C35.8621 20.3154 35.3241 20.7692 34.4828 20.7692C33.6414 20.7692 33.1034 20.3154 33.1034 20V16.9231ZM7.58621 1.53846H32.4138V2.30769H7.58621V1.53846ZM7.41379 3.84615H32.5862L35.6276 15.3846H4.37241L7.41379 3.84615ZM10.3448 38.4615V27.6923H15.8621V38.4615H10.3448ZM17.2414 38.4615V26.9231C17.2414 26.7191 17.1687 26.5234 17.0394 26.3791C16.91 26.2349 16.7346 26.1538 16.5517 26.1538H9.65517C9.47226 26.1538 9.29685 26.2349 9.16751 26.3791C9.03818 26.5234 8.96552 26.7191 8.96552 26.9231V38.4615H4.13793V22C4.57444 22.2051 5.04359 22.3098 5.51724 22.3077C6.26646 22.3301 6.99886 22.0578 7.58621 21.5385C8.17355 22.0578 8.90595 22.3301 9.65517 22.3077C10.4044 22.3301 11.1368 22.0578 11.7241 21.5385C12.321 22.0378 13.047 22.3077 13.7931 22.3077C14.5392 22.3077 15.2652 22.0378 15.8621 21.5385C16.459 22.0378 17.1849 22.3077 17.931 22.3077C18.6771 22.3077 19.4031 22.0378 20 21.5385C20.5969 22.0378 21.3229 22.3077 22.069 22.3077C22.8151 22.3077 23.541 22.0378 24.1379 21.5385C24.7348 22.0378 25.4608 22.3077 26.2069 22.3077C26.953 22.3077 27.679 22.0378 28.2759 21.5385C28.8727 22.0378 29.5987 22.3077 30.3448 22.3077C31.0909 22.3077 31.8169 22.0378 32.4138 21.5385C33.0011 22.0578 33.7335 22.3301 34.4828 22.3077C34.9564 22.3098 35.4256 22.2051 35.8621 22V38.4615H17.2414Z" fill="#000"/>
<path d="M33.1036 28.4614H23.4484C23.2655 28.4614 23.0901 28.5425 22.9608 28.6867C22.8314 28.831 22.7588 29.0266 22.7588 29.2307V35.3845C22.7588 35.5885 22.8314 35.7842 22.9608 35.9284C23.0901 36.0727 23.2655 36.1537 23.4484 36.1537H33.1036C33.2865 36.1537 33.4619 36.0727 33.5913 35.9284C33.7206 35.7842 33.7933 35.5885 33.7933 35.3845V29.2307C33.7933 29.0266 33.7206 28.831 33.5913 28.6867C33.4619 28.5425 33.2865 28.4614 33.1036 28.4614ZM32.414 34.6153H24.1381V29.9999H32.414V34.6153Z" fill="#000"/>
<path d="M26.8967 27.6923H29.6553C29.8382 27.6923 30.0136 27.6112 30.143 27.467C30.2723 27.3227 30.345 27.1271 30.345 26.923C30.345 26.719 30.2723 26.5234 30.143 26.3791C30.0136 26.2349 29.8382 26.1538 29.6553 26.1538H26.8967C26.7138 26.1538 26.5384 26.2349 26.409 26.3791C26.2797 26.5234 26.207 26.719 26.207 26.923C26.207 27.1271 26.2797 27.3227 26.409 27.467C26.5384 27.6112 26.7138 27.6923 26.8967 27.6923Z" fill="#000"/>
</svg>
