<svg width="36" height="24" viewBox="0 0 36 24" fill="none" xmlns="http://www.w3.org/2000/svg">
<path d="M33.6 24H2.4C1.075 24 0 22.925 0 21.6V2.4C0 1.075 1.075 0 2.4 0H33.6C34.925 0 36 1.075 36 2.4V21.6C36 22.925 34.925 24 33.6 24ZM17.84 14.762L17.481 17.012C18.271 17.35 19.19 17.547 20.155 17.547C20.232 17.547 20.308 17.546 20.384 17.543H20.373C20.461 17.548 20.563 17.551 20.667 17.551C21.776 17.551 22.804 17.203 23.648 16.61L23.631 16.621C24.397 16.053 24.889 15.152 24.889 14.136C24.889 14.131 24.889 14.126 24.889 14.121C24.889 13.021 24.153 12.108 22.702 11.402C22.276 11.194 21.912 10.976 21.57 10.73L21.593 10.746C21.395 10.616 21.263 10.401 21.25 10.154V10.152C21.266 9.892 21.415 9.67 21.629 9.552L21.633 9.55C21.915 9.386 22.253 9.289 22.615 9.289C22.657 9.289 22.699 9.29 22.741 9.293H22.735H22.815C22.838 9.293 22.865 9.292 22.892 9.292C23.536 9.292 24.147 9.431 24.698 9.68L24.67 9.669L24.904 9.794L25.263 7.623C24.588 7.356 23.805 7.201 22.986 7.201C22.97 7.201 22.953 7.201 22.937 7.201H22.94C22.876 7.198 22.801 7.196 22.726 7.196C21.63 7.196 20.614 7.543 19.783 8.133L19.799 8.122C19.047 8.658 18.562 9.526 18.562 10.508V10.513C18.552 11.571 19.314 12.485 20.828 13.233C21.228 13.408 21.573 13.622 21.882 13.879L21.875 13.873C22.05 14.021 22.163 14.238 22.172 14.481V14.483V14.485C22.172 14.804 21.982 15.078 21.708 15.201L21.703 15.203C21.403 15.361 21.047 15.453 20.669 15.453C20.654 15.453 20.638 15.453 20.623 15.453H20.625C20.603 15.453 20.576 15.453 20.55 15.453C19.693 15.453 18.881 15.263 18.153 14.923L18.188 14.938L17.845 14.766L17.84 14.762ZM27.965 15.903H31.28C31.3333 16.1317 31.4377 16.6317 31.593 17.403H34L31.906 7.372H29.906C29.871 7.369 29.83 7.367 29.788 7.367C29.226 7.367 28.745 7.715 28.549 8.207L28.546 8.216L24.706 17.403H27.426L27.972 15.904L27.965 15.903ZM14.891 7.372L13.265 17.403H15.859L17.484 7.372H14.891ZM4.922 9.419L7.032 17.387H9.766L13.841 7.372H11.095L8.561 14.216L8.295 12.825L7.391 8.216C7.3 7.727 6.877 7.361 6.368 7.361C6.316 7.361 6.264 7.365 6.214 7.372L6.22 7.371H2.033L2.002 7.574C5.226 8.393 7.344 10.16 8.298 12.824C7.989 12.032 7.538 11.357 6.972 10.8L6.971 10.799C6.404 10.217 5.723 9.75 4.964 9.431L4.924 9.416L4.922 9.419ZM30.859 13.84H28.699C28.845 13.4547 29.189 12.5213 29.731 11.04L29.777 10.899C29.819 10.795 29.871 10.659 29.937 10.493C30.003 10.327 30.047 10.191 30.077 10.087L30.265 10.946L30.858 13.836L30.859 13.84Z" fill="black"/>
</svg>
